<svg xmlns="http://www.w3.org/2000/svg" viewBox="0 0 64 64" width="64" height="64">
  <!-- Background -->
  <rect width="64" height="64" rx="12" fill="url(#gradient)" />
  
  <!-- Gradient definition -->
  <defs>
    <linearGradient id="gradient" x1="0%" y1="0%" x2="100%" y2="100%">
      <stop offset="0%" style="stop-color:#10b981;stop-opacity:1" />
      <stop offset="100%" style="stop-color:#14b8a6;stop-opacity:1" />
    </linearGradient>
    <linearGradient id="whiteGradient" x1="0%" y1="0%" x2="100%" y2="100%">
      <stop offset="0%" style="stop-color:#ffffff;stop-opacity:1" />
      <stop offset="100%" style="stop-color:#f8fafc;stop-opacity:1" />
    </linearGradient>
  </defs>
  
  <!-- Whiteboard -->
  <rect x="8" y="12" width="48" height="36" rx="4" fill="url(#whiteGradient)" stroke="#e2e8f0" stroke-width="1"/>
  
  <!-- Drawing strokes -->
  <path d="M14 20 Q20 16 26 20 T38 20" stroke="#10b981" stroke-width="2" fill="none" stroke-linecap="round"/>
  <path d="M16 28 Q24 24 32 28 T44 28" stroke="#14b8a6" stroke-width="2" fill="none" stroke-linecap="round"/>
  <circle cx="18" cy="36" r="2" fill="#ef4444"/>
  <circle cx="32" cy="38" r="2" fill="#10b981"/>
  <circle cx="42" cy="34" r="2" fill="#f59e0b"/>
  
  <!-- Pen/pencil -->
  <path d="M46 52 L50 48 L52 50 L48 54 Z" fill="#374151"/>
  <path d="M48 54 L46 52 L44 54 L46 56 Z" fill="#6b7280"/>
  <circle cx="51" cy="49" r="1" fill="#ffffff"/>
</svg>
